<svg width="48" height="48" viewBox="0 0 48 48" fill="none" xmlns="http://www.w3.org/2000/svg">
<path d="M36.0004 0.399993H14.856C8.56807 0.399993 3.45637 5.51189 3.45637 11.7996V13.5278H2.18434C1.17626 13.5278 0.384338 14.3197 0.384338 15.3278C0.384338 16.3117 1.17626 17.1278 2.18434 17.1278H3.45637V30.4714H2.18434C1.17626 30.4714 0.384338 31.2874 0.384338 32.2714C0.384338 33.2795 1.17626 34.0714 2.18434 34.0714H3.45637V35.7995C3.45637 42.0875 8.56827 47.1992 14.856 47.1992H36.0004C42.2883 47.1992 47.4 42.0873 47.4 35.7995V11.7988C47.4 5.51086 42.2881 0.39917 36.0004 0.39917V0.399993ZM25.4164 6.0881C30.2643 6.0881 34.2002 10.024 34.2002 14.8719C34.2002 19.7199 30.2642 23.632 25.4164 23.632C20.5684 23.632 16.6562 19.6961 16.6562 14.8719C16.6562 10.0481 20.5922 6.0881 25.4164 6.0881ZM37.9207 41.5121C36.9367 41.5121 36.1207 40.6961 36.1207 39.7121C36.1207 33.8083 31.3206 29.0078 25.4164 29.0078C19.5126 29.0078 14.7367 33.8079 14.7367 39.7121C14.7367 40.6961 13.9207 41.5121 12.9367 41.5121C11.9286 41.5121 11.1367 40.6961 11.1367 39.7121C11.1367 31.8399 17.5448 25.4078 25.4164 25.4078C33.2885 25.4078 39.7207 31.8399 39.7207 39.7121C39.7207 40.6961 38.9047 41.5121 37.9207 41.5121Z" fill="black"/>
<path d="M25.4164 20.0323C28.2723 20.0323 30.6002 17.7044 30.6002 14.8722C30.6002 12.0163 28.2722 9.68842 25.4164 9.68842C22.5842 9.68842 20.2562 12.0164 20.2562 14.8722C20.2562 17.7044 22.5842 20.0323 25.4164 20.0323Z" fill="black"/>
</svg>
